<?xml version="1.0" standalone="no"?>
<!DOCTYPE svg PUBLIC "-//W3C//DTD SVG 20010904//EN"
 "http://www.w3.org/TR/2001/REC-SVG-20010904/DTD/svg10.dtd">
<svg version="1.0" xmlns="http://www.w3.org/2000/svg"
 width="655.000000pt" height="655.000000pt" viewBox="0 0 655.000000 655.000000"
 preserveAspectRatio="xMidYMid meet">
<metadata>
Created by potrace 1.14, written by Peter Selinger 2001-2017
</metadata>
<g transform="translate(0.000000,655.000000) scale(0.100000,-0.100000)"
fill="#000000" stroke="none">
<path d="M1695 5122 c-97 -3 -117 -8 -121 -34 -1 -7 -32 -85 -69 -173 -37 -88
-74 -177 -81 -198 -7 -20 -20 -52 -28 -70 -7 -17 -40 -95 -71 -172 -67 -163
-83 -203 -95 -230 -5 -11 -23 -56 -40 -100 -17 -44 -37 -93 -45 -110 -7 -16
-48 -115 -90 -220 -43 -104 -86 -210 -96 -234 -10 -24 -19 -50 -19 -57 0 -8
-5 -14 -11 -14 -5 0 -8 -4 -5 -8 3 -5 -2 -22 -10 -38 -9 -16 -25 -51 -35 -79
-19 -50 -22 -57 -53 -127 -9 -20 -16 -39 -16 -42 0 -3 -11 -30 -25 -60 -14
-30 -25 -62 -25 -70 0 -9 -4 -16 -8 -16 -5 0 -9 -6 -9 -12 -1 -7 -31 -85 -68
-173 -36 -88 -89 -216 -116 -285 -28 -69 -54 -134 -59 -145 -5 -11 -21 -49
-35 -85 -15 -36 -32 -78 -40 -95 -7 -16 -23 -55 -35 -85 -12 -30 -27 -66 -33
-80 -5 -14 -11 -29 -13 -35 -3 -14 -161 -392 -179 -432 -8 -17 -15 -37 -15
-45 0 -8 -5 -19 -11 -25 -6 -6 -12 -17 -13 -24 -3 -15 -22 -62 -37 -91 -5 -10
-6 -18 -2 -19 5 -1 142 -2 306 -2 l299 -2 111 111 c108 107 252 237 330 299
21 17 46 37 55 46 34 32 221 170 318 233 54 36 104 70 110 75 46 38 512 298
526 294 3 -1 12 4 18 12 7 8 18 15 24 15 7 0 40 13 74 30 34 16 64 30 67 30 2
1 43 19 90 41 93 42 115 47 115 24 0 -8 4 -23 9 -33 6 -9 38 -91 71 -182 34
-91 65 -174 70 -185 4 -11 18 -47 30 -80 12 -33 26 -69 30 -80 5 -11 20 -53
35 -93 14 -41 34 -95 44 -120 11 -26 36 -92 56 -147 20 -55 40 -109 45 -120 5
-11 19 -49 31 -85 12 -36 27 -69 34 -75 16 -13 685 -13 685 0 0 16 -22 79 -32
91 -5 7 -10 20 -12 30 -4 16 -36 99 -67 169 -5 11 -43 103 -85 205 -42 102
-81 196 -87 210 -5 14 -11 30 -13 35 -4 17 -103 256 -144 350 -44 101 -130
328 -126 333 3 3 6 3 6 -1 0 -3 24 2 54 12 29 11 107 31 172 46 147 33 152 34
189 40 29 4 50 8 105 20 14 3 36 8 50 10 14 2 54 8 89 14 35 6 67 9 70 7 3 -2
6 -358 6 -789 -1 -697 1 -786 15 -789 44 -10 1655 2 1655 12 0 1 11 3 25 5 48
7 85 13 100 19 8 3 26 8 40 10 99 19 324 117 377 164 10 10 30 25 45 35 115
73 291 320 323 452 3 11 12 45 20 75 50 180 51 403 1 585 -2 6 -8 23 -14 38
-7 16 -12 31 -12 34 0 17 -59 126 -99 183 -84 122 -224 248 -356 320 -57 31
-59 35 -31 53 92 61 225 243 270 372 10 28 21 57 24 65 39 109 49 380 17 480
-3 10 -7 27 -9 37 -9 47 -29 109 -38 121 -6 6 -8 12 -5 12 10 0 -52 116 -95
177 -43 62 -144 173 -156 173 -4 0 -20 12 -36 27 -49 45 -181 119 -263 148
-43 15 -85 30 -93 33 -19 7 -28 9 -65 16 -16 3 -41 8 -55 10 -55 11 -108 17
-175 21 -58 4 -976 7 -1315 5 l-95 0 0 -771 c0 -515 -3 -773 -10 -779 -5 -4
-30 -11 -55 -14 -50 -7 -52 -7 -195 -36 -55 -11 -110 -22 -123 -25 -13 -2 -31
-6 -40 -9 -9 -3 -28 -7 -42 -10 -14 -3 -52 -13 -85 -22 -33 -9 -67 -17 -75
-19 -17 -4 -151 -43 -249 -74 -36 -11 -66 -19 -67 -18 -1 1 -18 40 -37 87 -19
47 -69 171 -112 275 -43 105 -111 271 -152 370 -41 99 -86 209 -99 245 -14 36
-29 74 -34 85 -23 51 -140 335 -140 338 0 3 -8 22 -17 43 -9 22 -17 41 -18 44
-1 3 -5 14 -10 25 -5 11 -30 74 -57 139 -26 65 -49 121 -51 123 -5 4 -361 9
-482 5z m3525 -591 c176 -32 304 -119 364 -246 44 -94 63 -245 44 -344 -5 -25
-12 -57 -14 -71 -9 -46 -66 -139 -113 -185 -65 -65 -182 -121 -204 -99 -4 4
-23 8 -44 11 -21 2 -58 6 -83 8 -25 3 -70 7 -100 11 -30 3 -172 7 -316 8 -144
2 -265 6 -270 9 -5 3 -8 29 -7 59 2 29 3 58 3 63 -5 420 -4 764 1 775 7 14 50
16 341 14 206 -1 358 -6 398 -13z m-3304 -251 c32 -87 55 -148 119 -315 32
-84 38 -99 41 -110 4 -19 175 -470 185 -490 6 -12 11 -27 13 -35 2 -8 6 -22 9
-30 10 -25 28 -75 28 -77 0 -2 9 -24 20 -49 11 -26 18 -48 17 -49 -2 -1 -91
-47 -199 -103 -108 -55 -263 -141 -344 -191 -81 -50 -149 -91 -151 -91 -7 0
-366 -263 -390 -285 -6 -5 -32 -28 -59 -50 -26 -22 -64 -55 -84 -73 -20 -19
-44 -38 -53 -43 -16 -9 -16 -7 -3 18 8 16 25 57 39 93 13 36 41 108 62 160 20
52 37 101 37 108 0 6 4 12 9 12 4 0 8 6 8 14 0 8 18 58 39 112 100 251 123
310 125 319 2 6 9 24 16 40 7 17 14 35 14 40 1 6 9 27 19 49 9 21 17 40 17 43
0 2 30 79 66 171 36 92 85 219 109 282 24 63 76 196 115 295 39 99 72 185 74
190 1 6 10 27 19 49 9 21 17 44 17 52 0 7 5 16 10 19 6 4 7 11 4 17 -4 6 -1 9
6 6 7 -2 28 -46 46 -98z m3099 -1213 c11 -3 47 -8 80 -11 33 -4 92 -14 130
-22 39 -9 79 -17 90 -18 11 -2 27 -6 35 -9 8 -3 35 -11 60 -18 25 -6 54 -16
65 -22 11 -6 22 -12 25 -12 22 -3 108 -50 152 -83 142 -105 200 -219 194 -387
-3 -105 -26 -169 -92 -255 -57 -75 -79 -91 -191 -145 -130 -63 -168 -67 -650
-69 -289 -1 -433 2 -434 9 -6 56 -3 1033 4 1042 6 9 74 11 260 8 139 -2 261
-5 272 -8z"/>
</g>
</svg>
